<svg xmlns="http://www.w3.org/2000/svg" viewBox="0 0 200 200">
  <rect width="200" height="200" fill="black"/>
  <!-- Arm/sleeve -->
  <rect x="20" y="60" width="50" height="90" rx="4" fill="white"/>
  <rect x="22" y="62" width="46" height="6" fill="black"/>
  <rect x="22" y="138" width="46" height="6" fill="black"/>
  <!-- Cuff detail -->
  <rect x="30" y="100" width="32" height="12" rx="3" fill="black"/>
  <circle cx="46" cy="106" r="4" fill="white"/>
  <!-- Hand -->
  <ellipse cx="62" cy="132" rx="18" ry="14" fill="white"/>
  <rect x="44" y="140" width="8" height="18" rx="3" fill="white"/>
  <rect x="54" y="143" width="8" height="18" rx="3" fill="white"/>
  <rect x="64" y="143" width="8" height="16" rx="3" fill="white"/>
  <rect x="74" y="145" width="7" height="13" rx="3" fill="white"/>
  <!-- Fish/wave body -->
  <path d="M68 80 Q110 55 160 75 Q185 90 185 110 Q185 130 160 145 Q110 165 68 140 Q50 132 55 110 Q50 88 68 80Z" fill="white"/>
  <!-- Wave lines inside fish -->
  <path d="M85 85 Q120 70 155 85 Q170 95 168 110 Q170 125 155 135 Q120 150 85 135" fill="none" stroke="black" stroke-width="5"/>
  <path d="M95 88 Q125 75 152 90 Q164 100 163 110 Q164 120 152 130 Q125 145 95 132" fill="none" stroke="black" stroke-width="4"/>
  <path d="M108 92 Q132 82 150 95 Q158 105 158 110 Q158 115 150 125 Q132 138 108 128" fill="none" stroke="black" stroke-width="4"/>
  <!-- Tail fin -->
  <path d="M155 80 L185 60 L180 90Z" fill="white"/>
  <path d="M155 140 L185 160 L180 130Z" fill="white"/>
  <path d="M155 80 L185 60 L180 90Z" fill="none" stroke="black" stroke-width="2"/>
  <path d="M155 140 L185 160 L180 130Z" fill="none" stroke="black" stroke-width="2"/>
  <!-- Jacket cuff lines -->
  <line x1="22" y1="75" x2="68" y2="75" stroke="black" stroke-width="2"/>
  <line x1="22" y1="130" x2="55" y2="130" stroke="black" stroke-width="2"/>
</svg>
